<svg xmlns="http://www.w3.org/2000/svg" width="100" height="211" viewBox="0 0 100 211">
  <g id="グループ_177" data-name="グループ 177" transform="translate(740 -1496)">
    <rect id="長方形_168" data-name="長方形 168" width="100" height="211" transform="translate(-740 1496)" fill="#f7f5f0"/>
    <g id="グループ_149" data-name="グループ 149" transform="translate(-730 1517)">
      <text id="access" transform="translate(31.035 0) rotate(90)" fill="#3f709a" font-size="48" font-family="AvenirNext-DemiBold, Avenir Next" font-weight="300" letter-spacing="0.1em"><tspan x="0" y="0">access</tspan></text>
      <g id="グループ_148" data-name="グループ 148" transform="translate(0 1.256)">
        <g id="グループ_147" data-name="グループ 147">
          <g id="グループ_146" data-name="グループ 146">
            <path id="パス_396" data-name="パス 396" d="M330.657,293.881V292.62h12.711a1.532,1.532,0,0,0,.666-.324l1.027.973a27.84,27.84,0,0,1-4.934,6.283l-.971-.935a16.7,16.7,0,0,0,2.034-2.108,12.062,12.062,0,0,0,1.8-2.628ZM332.2,304.2a7.561,7.561,0,0,0,3.727-4.286,15.06,15.06,0,0,0,.829-5.275l1.548.288c.181.036.27.126.27.216,0,.108-.036.144-.414.36-.252,2.611-.45,4.43-1.8,6.752a8.4,8.4,0,0,1-2.9,2.971Z" transform="translate(-330.657 -292.296)" fill="#3f709a"/>
            <path id="パス_397" data-name="パス 397" d="M342.576,310.855a2.024,2.024,0,0,0,.649-.09l.846,1.026c-.7.576-.792.756-.937,1.08-1.477,3.889-2.431,5.582-4.537,7.635a15.644,15.644,0,0,1-3.673,2.628l-1.314-1.08a14.29,14.29,0,0,0,5.456-4.159,12.976,12.976,0,0,0,2.7-5.816h-5.438a20.782,20.782,0,0,1-3.565,3.835l-1.17-.882a14.935,14.935,0,0,0,3.349-3.313,10.7,10.7,0,0,0,1.674-3.115l1.3.45c.342.126.36.307.36.343,0,.162-.234.2-.576.233-.18.4-.36.775-.613,1.225Z" transform="translate(-330.657 -292.296)" fill="#3f709a"/>
            <path id="パス_398" data-name="パス 398" d="M342.613,330.367c.126,0,.521-.377.612-.468l1.224,1.224c-.378.288-.468.361-.558.523a19.636,19.636,0,0,1-3.1,4.591l-1.171-.648a14.845,14.845,0,0,0,2.755-3.943l-5.708.5v4.609c0,1.495.612,1.675,2.629,1.675a21.3,21.3,0,0,0,4.447-.36l.036,1.4c-1.259.108-3.294.234-5.131.234-2.827,0-3.349-.954-3.349-2.161v-5.257l-4.268.432-.089-1.225,4.357-.414v-4.554l1.332.107c.108.019.505.055.505.252,0,.072-.055.108-.469.4v3.656Z" transform="translate(-330.657 -292.296)" fill="#3f709a"/>
            <path id="パス_399" data-name="パス 399" d="M342.81,345.055c-.792.521-.828.558-1.044.846a24.164,24.164,0,0,1-2.521,4.357,25.441,25.441,0,0,1,4.879,5.168l-1.223,1.026a14.546,14.546,0,0,0-2.3-3.079,17.638,17.638,0,0,0-2.2-1.98,17.032,17.032,0,0,1-6.572,4.681l-1.081-1.207a13.606,13.606,0,0,0,5.781-3.493,15.236,15.236,0,0,0,3.8-5.851h-7.507v-1.261h8.011a1.653,1.653,0,0,0,.847-.378Z" transform="translate(-330.657 -292.296)" fill="#3f709a"/>
          </g>
        </g>
      </g>
    </g>
  </g>
</svg>
