<svg xmlns="http://www.w3.org/2000/svg" width="100" height="253" viewBox="0 0 100 253">
  <g id="グループ_176" data-name="グループ 176" transform="translate(899 -1496)">
    <rect id="長方形_169" data-name="長方形 169" width="100" height="253" transform="translate(-899 1496)" fill="#f7f5f0"/>
    <g id="グループ_141" data-name="グループ 141" transform="translate(-890 1517)">
      <text id="concept" transform="translate(33.25 0) rotate(90)" fill="#3f709a" font-size="48" font-family="AvenirNext-DemiBold, Avenir Next" font-weight="300" letter-spacing="0.1em"><tspan x="0" y="0">concept</tspan></text>
      <g id="グループ_140" data-name="グループ 140" transform="translate(0 4.971)">
        <g id="グループ_139" data-name="グループ 139">
          <path id="パス_384" data-name="パス 384" d="M490.271,274.144h3.15v1.224H490.5a10.62,10.62,0,0,0,2.575,3.656l-1.026.936a7.975,7.975,0,0,1-1.782-2.809v8.571H489.01v-8.337a17.524,17.524,0,0,1-2.772,4.447l-1.171-.845a14.262,14.262,0,0,0,3.475-5.619h-3.331v-1.224h3.8v-2.755c-1.152.2-1.692.288-2.575.414l-.9-1.224a23.869,23.869,0,0,0,6.338-1.207l.955,1.009a.451.451,0,0,1,.072.235.183.183,0,0,1-.2.179,1.232,1.232,0,0,1-.432-.144c-.973.234-1.135.27-2,.45Zm10.28,10.515a18.612,18.612,0,0,0-.666-1.783c-2.467.613-4.951,1.063-7.454,1.459-.252.361-.378.559-.576.559-.109,0-.18-.055-.235-.253l-.557-1.674c.792-.036,1.152-.072,1.746-.144a63.28,63.28,0,0,0,3.457-13.414l1.963.63c.017.018.2.072.2.2,0,.216-.234.27-.757.4a99.849,99.849,0,0,1-3.457,12.046c1.729-.27,3.115-.5,5.15-.937a18.638,18.638,0,0,0-1.674-3.186l1.026-.648a23.227,23.227,0,0,1,3.1,6.283Z" transform="translate(-485.067 -269.372)" fill="#3f709a"/>
          <path id="パス_385" data-name="パス 385" d="M493.367,289.7c-.234.936-.324,1.242-.792,2.953a15.763,15.763,0,0,0,3.042-.882v1.35a18.456,18.456,0,0,1-3.474.846c-.45,1.4-1.009,3.133-1.908,5.348a21.564,21.564,0,0,1-1.982,3.979l-1.458-.36a20.485,20.485,0,0,0,2.251-4.016,44.729,44.729,0,0,0,1.782-4.753,26.261,26.261,0,0,1-2.989.09l-.143-1.314a6.5,6.5,0,0,0,1.278.09,15.668,15.668,0,0,0,2.2-.18,18.872,18.872,0,0,0,.7-3.764Zm.756,10.371a2.275,2.275,0,0,0-.2.99c0,.973,1.081,1.314,2.648,1.314a12.727,12.727,0,0,0,3.493-.522l-.181,1.4a17.629,17.629,0,0,1-3.367.323c-.972,0-3.853-.143-3.853-2.177a5.654,5.654,0,0,1,.378-1.8Zm.649-4.879c.774-.091,2.106-.2,2.862-.2a10.056,10.056,0,0,1,2.485.288l-.053,1.259a12.133,12.133,0,0,0-2.953-.323,8.674,8.674,0,0,0-2.377.234Z" transform="translate(-485.067 -269.372)" fill="#3f709a"/>
          <path id="パス_386" data-name="パス 386" d="M497.689,311.08A36.8,36.8,0,0,1,492.2,312.2c-.09.4-.684,2.754-1.081,3.979a8.326,8.326,0,0,1,4.646-1.765c2.3,0,3.889,1.441,3.889,3.368,0,4.771-6.266,4.716-8.588,4.681l-.469-1.495a13.478,13.478,0,0,0,2.431.235c3.817,0,5.456-1.693,5.456-3.3a2.547,2.547,0,0,0-2.738-2.377,6.229,6.229,0,0,0-3.744,1.44,7.524,7.524,0,0,0-1.35,1.368l-1.4-.738a26.378,26.378,0,0,0,1.729-5.257c-.2,0-1.063.054-1.225.054-.252,0-1.188-.018-2.106-.109l-.271-1.314a19.082,19.082,0,0,0,3.278.288,2.863,2.863,0,0,0,.612-.054c.126-.593.63-3.241.738-3.781l1.422.5c-.431,1.188-.828,2.684-.954,3.151a19.35,19.35,0,0,0,5.222-1.458Z" transform="translate(-485.067 -269.372)" fill="#3f709a"/>
          <path id="パス_387" data-name="パス 387" d="M494.5,339.055a8.488,8.488,0,0,0,2.755-1.387,5.907,5.907,0,0,0,2.125-4.483,5.265,5.265,0,0,0-2.845-4.663,6.416,6.416,0,0,0-2.466-.487,22.8,22.8,0,0,1-2.089,7.887c-.756,1.6-1.729,3.169-2.791,3.169-1.513,0-3.079-2.323-3.079-4.933a7.414,7.414,0,0,1,7.617-7.347c3.78,0,7,2.377,7,6.374,0,4.9-4.358,6.644-5.438,7.076Zm-5.924-8.463a5.915,5.915,0,0,0-1.242,3.529c0,1.927,1.1,3.385,1.819,3.385.378,0,.81,0,1.98-2.881a21.25,21.25,0,0,0,1.549-6.553A5.881,5.881,0,0,0,488.577,330.592Z" transform="translate(-485.067 -269.372)" fill="#3f709a"/>
          <path id="パス_388" data-name="パス 388" d="M499.273,356.984a33.922,33.922,0,0,1-5.4.378,17.3,17.3,0,0,1-3.835-.4c-.738-.181-2.539-.757-2.539-2.594,0-1.133.7-1.836,1.927-2.97l.937.846c-.865.72-1.513,1.243-1.513,1.963,0,1.836,3.529,1.926,4.591,1.926a26.283,26.283,0,0,0,5.888-.792Zm-10.317-12.478c.342.054,1.855.306,2.178.342a14.982,14.982,0,0,0,2.287.144,26.66,26.66,0,0,0,3.8-.288l.7,1.35c-1.89,1.171-2.881,1.819-4.177,2.773l-.9-.846c.468-.306,2.484-1.656,2.917-1.927a12.9,12.9,0,0,1-2.034.145,27.818,27.818,0,0,1-4.628-.415Z" transform="translate(-485.067 -269.372)" fill="#3f709a"/>
          <path id="パス_389" data-name="パス 389" d="M487.282,365.693a6.261,6.261,0,0,0,1.242.09,15.962,15.962,0,0,0,2.268-.144,16.906,16.906,0,0,0,.613-3.98l1.494.649c-.126.486-.648,2.61-.756,3.06a14.249,14.249,0,0,0,3.06-1.08v1.3a21.311,21.311,0,0,1-3.474,1.08c-1.8,5.852-2.359,7.454-3.566,9.435l-1.458-.378a16.566,16.566,0,0,0,2.053-3.854,43.867,43.867,0,0,0,1.71-5,20.84,20.84,0,0,1-3.061.143Zm6.553,6.932a6.123,6.123,0,0,0-.09,1.08c0,1.1,1.621,1.17,2.161,1.17a20.926,20.926,0,0,0,3.943-.521l-.2,1.368a18.123,18.123,0,0,1-3.547.378c-1.71,0-3.583-.4-3.583-2.125a7.306,7.306,0,0,1,.288-1.765Zm.613-4.88a23.662,23.662,0,0,1,3.709-.288,5.923,5.923,0,0,1,1.584.144l-.036,1.224a11.5,11.5,0,0,0-2.2-.143,13.272,13.272,0,0,0-3.114.288Zm2.665-5.527a18.246,18.246,0,0,1,1.746,2.07l-.937.649a21.63,21.63,0,0,0-1.692-1.963Zm2.07-.99a11.317,11.317,0,0,1,1.639,2.016l-.937.666c-.126-.162-1.026-1.368-1.584-1.98Z" transform="translate(-485.067 -269.372)" fill="#3f709a"/>
          <path id="パス_390" data-name="パス 390" d="M491.675,380.4c-.072.918-.162,2-.234,3.007a5.433,5.433,0,0,0,1.08-.523l.612.523c-.522.774-.973,1.476-1.261,1.962a6.963,6.963,0,0,1,3.908-1.315,4.174,4.174,0,0,1,4.483,4.322,5.9,5.9,0,0,1-2.772,4.933,5.213,5.213,0,0,1-2.017.883l-1.026-1.027a7.021,7.021,0,0,0,3.331-1.711,4.111,4.111,0,0,0,1.26-3.006,3.021,3.021,0,0,0-3.187-3.313c-2.089,0-3.727,1.548-4.591,2.359-.036.882-.036,1.242-.036,1.908,0,1.549.036,2.953.126,5.258l-1.5.089c0-.378.018-.485.036-1.116.126-2.755.126-3.06.2-4.789-.63.846-1.332,1.818-2.251,3.187l-1.08-.846a40.081,40.081,0,0,0,3.421-4.682c0-.252.036-1.332.055-1.549-.973.217-2.287.523-2.917.613l-.055-1.368a16.766,16.766,0,0,0,2.972-.468c-.019-2.017-.019-2.3-.055-3.655Z" transform="translate(-485.067 -269.372)" fill="#3f709a"/>
          <path id="パス_391" data-name="パス 391" d="M490.5,399.01a20.165,20.165,0,0,0-.756,5.582,1.781,1.781,0,0,0,.144.792c.469-.847.883-1.765,1.314-2.755l.793.792c-.379,1.1-.558,1.53-2.052,5.348l-.793.09a12.839,12.839,0,0,1-.72-4.429,27.64,27.64,0,0,1,.72-5.942Zm7.418-.414a5.908,5.908,0,0,0,.019,1.242c.179,2.539.216,2.917.216,3.764a13.409,13.409,0,0,1-1.639,6.752,9.353,9.353,0,0,1-1.981,2.394l-1.259-.846a8.043,8.043,0,0,0,2.592-3.133,11.121,11.121,0,0,0,.972-4.934,24.722,24.722,0,0,0-.522-5.149Z" transform="translate(-485.067 -269.372)" fill="#3f709a"/>
        </g>
      </g>
    </g>
  </g>
</svg>
