<svg id="グループ_20" data-name="グループ 20" xmlns="http://www.w3.org/2000/svg" width="128.948" height="75.579" viewBox="0 0 128.948 75.579">
  <g id="グループ_15" data-name="グループ 15" transform="translate(2.289)">
    <g id="グループ_14" data-name="グループ 14">
      <path id="パス_42" data-name="パス 42" d="M748.688,607.567h6.679a16.822,16.822,0,0,1,2.34.164,6.382,6.382,0,0,1,2.112.658,4.053,4.053,0,0,1,1.519,1.379,4.236,4.236,0,0,1,.582,2.353,3.763,3.763,0,0,1-.848,2.517,4.659,4.659,0,0,1-2.239,1.43v.051a5.1,5.1,0,0,1,1.607.493,4.3,4.3,0,0,1,1.239.936,4.015,4.015,0,0,1,.8,1.328,4.7,4.7,0,0,1,.279,1.619,4.311,4.311,0,0,1-.607,2.365,4.773,4.773,0,0,1-1.569,1.531,6.863,6.863,0,0,1-2.162.835,11.578,11.578,0,0,1-2.391.253h-7.336Zm3.946,7.159h2.858a4.019,4.019,0,0,0,.9-.1,2.51,2.51,0,0,0,.8-.329,1.724,1.724,0,0,0,.569-.607,1.841,1.841,0,0,0,.215-.911,1.654,1.654,0,0,0-.24-.923,1.678,1.678,0,0,0-.62-.569,2.943,2.943,0,0,0-.86-.291,5.17,5.17,0,0,0-.937-.088h-2.681Zm0,7.412h3.542a4.423,4.423,0,0,0,.924-.1,2.475,2.475,0,0,0,.848-.354,2.029,2.029,0,0,0,.619-.658,1.9,1.9,0,0,0,.24-.986,1.586,1.586,0,0,0-.316-1.025,2.017,2.017,0,0,0-.8-.594,4.059,4.059,0,0,0-1.037-.279,7.662,7.662,0,0,0-1.037-.076h-2.985Z" transform="translate(-748.688 -607.567)" fill="#f9f5ea"/>
      <path id="パス_43" data-name="パス 43" d="M776.034,607.567H779.3l7.791,17.91h-4.452l-1.543-3.794h-6.957l-1.492,3.794h-4.351Zm1.519,5.211-2.175,5.565h4.376Z" transform="translate(-748.688 -607.567)" fill="#f9f5ea"/>
      <path id="パス_44" data-name="パス 44" d="M794.093,607.567h3.947V615L805,607.567h5.161l-7.969,8.323,8.652,9.588h-5.515l-7.285-8.5v8.5h-3.948Z" transform="translate(-748.688 -607.567)" fill="#f9f5ea"/>
      <path id="パス_45" data-name="パス 45" d="M817.421,607.567h12.168v3.643h-8.222v3.339h7.767v3.643h-7.767v3.643h8.677v3.643H817.42Z" transform="translate(-748.688 -607.567)" fill="#f9f5ea"/>
      <path id="パス_46" data-name="パス 46" d="M838.266,607.567H845.2a12.216,12.216,0,0,1,2.593.266,6.175,6.175,0,0,1,2.151.885,4.424,4.424,0,0,1,1.467,1.67,5.674,5.674,0,0,1,.543,2.618,5.26,5.26,0,0,1-.986,3.225,4.449,4.449,0,0,1-2.884,1.683l4.553,7.564H847.9l-3.744-7.159h-1.948v7.159h-3.946Zm3.946,7.412h2.327c.354,0,.73-.013,1.126-.038a3.507,3.507,0,0,0,1.075-.228,1.871,1.871,0,0,0,.8-.594,1.813,1.813,0,0,0,.317-1.138,1.9,1.9,0,0,0-.278-1.088,1.876,1.876,0,0,0-.709-.62,3.155,3.155,0,0,0-.986-.291,7.927,7.927,0,0,0-1.088-.076h-2.58Z" transform="translate(-748.688 -607.567)" fill="#f9f5ea"/>
      <path id="パス_47" data-name="パス 47" d="M864.12,617.837l-6.729-10.27H862.3l3.794,6.7,4.022-6.7h4.68l-6.729,10.27v7.64h-3.947Z" transform="translate(-748.688 -607.567)" fill="#f9f5ea"/>
    </g>
  </g>
  <path id="パス_48" data-name="パス 48" d="M767.109,640.243a1.315,1.315,0,0,1-1.683-.007,6.109,6.109,0,0,0-1.479-.931,7.427,7.427,0,0,0-3.06-.592,7.651,7.651,0,0,0-5.784,2.547,8.688,8.688,0,0,0-1.7,2.862,10.9,10.9,0,0,0,0,7.206,8.969,8.969,0,0,0,1.677,2.843,7.622,7.622,0,0,0,2.508,1.876,7.272,7.272,0,0,0,3.1.671,6.949,6.949,0,0,0,3.356-.79,6.63,6.63,0,0,0,1.679-1.29,1.324,1.324,0,0,1,1.757-.155l3,2.235a1.338,1.338,0,0,1,.261,1.874,1.274,1.274,0,0,1-.1.113,10.569,10.569,0,0,1-3.557,2.514,13.934,13.934,0,0,1-5.607,1.184,17.249,17.249,0,0,1-6.041-1.027,13.8,13.8,0,0,1-4.777-2.941,13.337,13.337,0,0,1-3.139-4.639,16.984,16.984,0,0,1,0-12.161A13.328,13.328,0,0,1,750.664,637a13.817,13.817,0,0,1,4.777-2.942,17.225,17.225,0,0,1,6.041-1.026,14.8,14.8,0,0,1,2.468.217,13.337,13.337,0,0,1,2.527.691,11.268,11.268,0,0,1,2.389,1.264,9.23,9.23,0,0,1,1.032.829,1.329,1.329,0,0,1,.057,1.878,1.254,1.254,0,0,1-.13.122Z" transform="translate(-746.399 -607.567)" fill="#f9f5ea"/>
  <path id="パス_49" data-name="パス 49" d="M777.389,647.716a15.782,15.782,0,0,1,1.125-6.081,13.317,13.317,0,0,1,3.14-4.639,13.816,13.816,0,0,1,4.777-2.942,18.285,18.285,0,0,1,12.082,0A13.839,13.839,0,0,1,803.291,637a13.328,13.328,0,0,1,3.139,4.639,17,17,0,0,1,0,12.161,13.337,13.337,0,0,1-3.139,4.639,13.813,13.813,0,0,1-4.778,2.941,18.285,18.285,0,0,1-12.082,0,13.814,13.814,0,0,1-4.777-2.941,13.326,13.326,0,0,1-3.14-4.639A15.8,15.8,0,0,1,777.389,647.716Zm6.4,0a10.231,10.231,0,0,0,.613,3.613,8.241,8.241,0,0,0,1.757,2.843,8.014,8.014,0,0,0,2.744,1.876,9.845,9.845,0,0,0,7.146,0,8.027,8.027,0,0,0,2.745-1.876,8.3,8.3,0,0,0,1.757-2.843,10.912,10.912,0,0,0,0-7.206,8.232,8.232,0,0,0-1.757-2.862,8.027,8.027,0,0,0-2.745-1.876,9.845,9.845,0,0,0-7.146,0,8.014,8.014,0,0,0-2.744,1.876,8.2,8.2,0,0,0-1.757,2.862,10.283,10.283,0,0,0-.617,3.593Z" transform="translate(-746.399 -607.567)" fill="#f9f5ea"/>
  <path id="パス_50" data-name="パス 50" d="M835.036,640.134a1.549,1.549,0,0,1-1.954-.008,6.119,6.119,0,0,0-1.344-.819,7.426,7.426,0,0,0-3.06-.592,7.651,7.651,0,0,0-5.785,2.547,8.688,8.688,0,0,0-1.7,2.862,10.912,10.912,0,0,0,0,7.206,8.974,8.974,0,0,0,1.678,2.843,7.6,7.6,0,0,0,2.508,1.876,7.255,7.255,0,0,0,3.1.671,6.949,6.949,0,0,0,3.356-.79,6.621,6.621,0,0,0,1.578-1.185,1.532,1.532,0,0,1,2.008-.148l2.651,1.978a1.545,1.545,0,0,1,.318,2.16,1.775,1.775,0,0,1-.125.148,10.579,10.579,0,0,1-3.389,2.338,13.938,13.938,0,0,1-5.607,1.184,17.227,17.227,0,0,1-6.041-1.027,13.794,13.794,0,0,1-4.778-2.941,13.337,13.337,0,0,1-3.139-4.639,16.984,16.984,0,0,1,0-12.161A13.337,13.337,0,0,1,818.45,637a13.82,13.82,0,0,1,4.778-2.942,17.224,17.224,0,0,1,6.041-1.026,14.806,14.806,0,0,1,2.468.217,13.343,13.343,0,0,1,2.526.691,11.264,11.264,0,0,1,2.389,1.264,9.4,9.4,0,0,1,.781.6,1.553,1.553,0,0,1,.182,2.187,1.7,1.7,0,0,1-.2.194Z" transform="translate(-746.399 -607.567)" fill="#f9f5ea"/>
  <path id="パス_51" data-name="パス 51" d="M845.183,647.716a15.762,15.762,0,0,1,1.125-6.081A13.327,13.327,0,0,1,849.447,637a13.83,13.83,0,0,1,4.778-2.942,18.294,18.294,0,0,1,12.081,0A13.848,13.848,0,0,1,871.084,637a13.348,13.348,0,0,1,3.138,4.639,17,17,0,0,1,0,12.161,13.348,13.348,0,0,1-3.138,4.639,13.842,13.842,0,0,1-4.778,2.941,18.282,18.282,0,0,1-12.081,0,13.794,13.794,0,0,1-4.778-2.941,13.324,13.324,0,0,1-3.139-4.639A15.781,15.781,0,0,1,845.183,647.716Zm6.4,0a10.23,10.23,0,0,0,.612,3.613,8.24,8.24,0,0,0,1.757,2.843,8.013,8.013,0,0,0,2.744,1.876,9.845,9.845,0,0,0,7.146,0,8.027,8.027,0,0,0,2.745-1.876,8.31,8.31,0,0,0,1.757-2.843,10.924,10.924,0,0,0,0-7.206,8.261,8.261,0,0,0-1.757-2.862,8.027,8.027,0,0,0-2.745-1.876,9.845,9.845,0,0,0-7.146,0,8.013,8.013,0,0,0-2.744,1.876,8.2,8.2,0,0,0-1.757,2.862,10.254,10.254,0,0,0-.615,3.593Z" transform="translate(-746.399 -607.567)" fill="#f9f5ea"/>
  <circle id="楕円形_9" data-name="楕円形 9" cx="2.468" cy="2.468" r="2.468" transform="translate(43.604 37.681)" fill="#f9f5ea"/>
  <circle id="楕円形_10" data-name="楕円形 10" cx="2.468" cy="2.468" r="2.468" transform="translate(111.398 37.681)" fill="#f9f5ea"/>
  <g id="グループ_18" data-name="グループ 18" transform="translate(2.289 64.828)">
    <path id="パス_52" data-name="パス 52" d="M748.688,679.175H750.7v.924h.029a1.676,1.676,0,0,1,.28-.393,2.05,2.05,0,0,1,.433-.35,2.54,2.54,0,0,1,.575-.252,2.407,2.407,0,0,1,.7-.1,2.646,2.646,0,0,1,1.266.294,1.852,1.852,0,0,1,.833.924,2.284,2.284,0,0,1,.882-.939,2.664,2.664,0,0,1,1.275-.279,2.608,2.608,0,0,1,1.154.23,1.89,1.89,0,0,1,.742.63,2.66,2.66,0,0,1,.393.939,5.368,5.368,0,0,1,.119,1.155v4.018h-2.1v-3.962a1.578,1.578,0,0,0-.2-.82.768.768,0,0,0-.72-.343,1.393,1.393,0,0,0-.61.12.984.984,0,0,0-.391.329,1.35,1.35,0,0,0-.21.49,2.669,2.669,0,0,0-.064.588v3.6h-2.1v-3.6c0-.121,0-.271-.013-.448a1.768,1.768,0,0,0-.1-.5.961.961,0,0,0-.272-.407.81.81,0,0,0-.554-.168,1.283,1.283,0,0,0-.657.148,1,1,0,0,0-.386.392,1.61,1.61,0,0,0-.175.552,4.95,4.95,0,0,0-.042.645v3.388h-2.1Z" transform="translate(-748.688 -675.395)" fill="#f9f5ea"/>
    <path id="パス_53" data-name="パス 53" d="M766.187,685.125h-.028a1.975,1.975,0,0,1-.931.783,3.194,3.194,0,0,1-1.225.238,3.146,3.146,0,0,1-.917-.132,2.31,2.31,0,0,1-.777-.4,1.9,1.9,0,0,1-.532-.658,2,2,0,0,1-.2-.909,2.079,2.079,0,0,1,.217-.994,1.943,1.943,0,0,1,.588-.672,2.866,2.866,0,0,1,.847-.413,6,6,0,0,1,.987-.217,9.291,9.291,0,0,1,1.022-.084c.34-.01.656-.015.945-.015a1.09,1.09,0,0,0-.4-.888,1.436,1.436,0,0,0-.945-.329,2.062,2.062,0,0,0-.945.216,2.583,2.583,0,0,0-.763.595l-1.12-1.147a3.853,3.853,0,0,1,1.372-.82,4.926,4.926,0,0,1,1.624-.272,4.271,4.271,0,0,1,1.519.23,2.214,2.214,0,0,1,.952.68,2.6,2.6,0,0,1,.5,1.1,7.222,7.222,0,0,1,.14,1.505v3.458h-1.932ZM765.669,683c-.159,0-.357.008-.6.022a2.93,2.93,0,0,0-.686.119,1.511,1.511,0,0,0-.56.294.677.677,0,0,0-.231.546.6.6,0,0,0,.322.559,1.343,1.343,0,0,0,.672.183,2.149,2.149,0,0,0,.595-.084,1.794,1.794,0,0,0,.511-.239,1.154,1.154,0,0,0,.357-.391,1.13,1.13,0,0,0,.133-.561V683Z" transform="translate(-748.688 -675.395)" fill="#f9f5ea"/>
    <path id="パス_54" data-name="パス 54" d="M770.485,675.4h2.1v6.467l2.324-2.687h2.577l-2.7,3.065,2.772,3.739h-2.646l-2.3-3.445h-.028v3.445h-2.1Z" transform="translate(-748.688 -675.395)" fill="#f9f5ea"/>
    <path id="パス_55" data-name="パス 55" d="M785.871,685.979h-2.015v-.924h-.029a2.281,2.281,0,0,1-.287.391,1.893,1.893,0,0,1-.427.351,2.534,2.534,0,0,1-.574.252,2.443,2.443,0,0,1-.7.1,2.945,2.945,0,0,1-1.295-.245,1.844,1.844,0,0,1-.769-.678,2.648,2.648,0,0,1-.365-1.023,8.412,8.412,0,0,1-.091-1.273v-3.752h2.1v3.332q0,.293.022.608a1.853,1.853,0,0,0,.126.581.989.989,0,0,0,.321.435,1.007,1.007,0,0,0,.623.168,1.285,1.285,0,0,0,.658-.148.991.991,0,0,0,.385-.391,1.616,1.616,0,0,0,.176-.554,4.92,4.92,0,0,0,.042-.643v-3.388h2.1Z" transform="translate(-748.688 -675.395)" fill="#f9f5ea"/>
    <path id="パス_56" data-name="パス 56" d="M790.505,675.4v4.7h.028a1.258,1.258,0,0,1,.239-.393,1.874,1.874,0,0,1,.405-.35,2.275,2.275,0,0,1,.56-.252,2.414,2.414,0,0,1,.7-.1,2.879,2.879,0,0,1,1.287.245,1.86,1.86,0,0,1,.763.679,2.757,2.757,0,0,1,.372,1.021,7.936,7.936,0,0,1,.1,1.275v3.752h-2.1v-3.333c0-.2-.008-.4-.022-.609a1.925,1.925,0,0,0-.126-.581,1.016,1.016,0,0,0-.322-.434,1,1,0,0,0-.623-.168,1.281,1.281,0,0,0-.657.148,1,1,0,0,0-.386.392,1.591,1.591,0,0,0-.175.552,4.95,4.95,0,0,0-.042.645v3.388h-2.1V675.4Z" transform="translate(-748.688 -675.395)" fill="#f9f5ea"/>
    <path id="パス_57" data-name="パス 57" d="M801.761,685.125h-.027a1.977,1.977,0,0,1-.932.783,3.194,3.194,0,0,1-1.225.238,3.147,3.147,0,0,1-.917-.132,2.32,2.32,0,0,1-.777-.4,1.912,1.912,0,0,1-.532-.658,2,2,0,0,1-.2-.909,2.09,2.09,0,0,1,.217-.994,1.943,1.943,0,0,1,.588-.672,2.866,2.866,0,0,1,.847-.413,5.994,5.994,0,0,1,.987-.217,9.289,9.289,0,0,1,1.023-.084c.339-.01.655-.015.944-.015a1.09,1.09,0,0,0-.4-.888,1.436,1.436,0,0,0-.945-.329,2.063,2.063,0,0,0-.945.216,2.6,2.6,0,0,0-.763.595l-1.12-1.147a3.871,3.871,0,0,1,1.372-.82,4.935,4.935,0,0,1,1.624-.272,4.281,4.281,0,0,1,1.52.23,2.212,2.212,0,0,1,.951.68,2.6,2.6,0,0,1,.5,1.1,7.152,7.152,0,0,1,.141,1.505v3.458h-1.933ZM801.243,683c-.159,0-.357.008-.594.022a2.93,2.93,0,0,0-.687.119,1.512,1.512,0,0,0-.56.294.677.677,0,0,0-.231.546.6.6,0,0,0,.322.559,1.343,1.343,0,0,0,.672.183,2.144,2.144,0,0,0,.6-.084,1.812,1.812,0,0,0,.512-.239,1.161,1.161,0,0,0,.356-.391,1.13,1.13,0,0,0,.133-.561V683Z" transform="translate(-748.688 -675.395)" fill="#f9f5ea"/>
    <path id="パス_58" data-name="パス 58" d="M806.059,679.175h2.1v1.092h.029a2.575,2.575,0,0,1,.8-.946,2.014,2.014,0,0,1,1.162-.314c.121,0,.242.005.364.014a1.891,1.891,0,0,1,.336.055v1.918a3.236,3.236,0,0,0-.442-.1,2.762,2.762,0,0,0-.455-.036,2.235,2.235,0,0,0-.952.168,1.278,1.278,0,0,0-.539.469,1.783,1.783,0,0,0-.244.722,6.884,6.884,0,0,0-.057.924v2.842h-2.1Z" transform="translate(-748.688 -675.395)" fill="#f9f5ea"/>
    <path id="パス_59" data-name="パス 59" d="M812.666,677.032a1.221,1.221,0,1,1,.358.862A1.167,1.167,0,0,1,812.666,677.032Zm.168,2.143h2.1v6.8h-2.1Z" transform="translate(-748.688 -675.395)" fill="#f9f5ea"/>
  </g>
</svg>
