<svg xmlns="http://www.w3.org/2000/svg" width="100" height="188" viewBox="0 0 100 188">
  <g id="グループ_179" data-name="グループ 179" transform="translate(496 -1496)">
    <rect id="長方形_166" data-name="長方形 166" width="100" height="188" transform="translate(-496 1496)" fill="#f7f5f0"/>
    <g id="グループ_153" data-name="グループ 153" transform="translate(-486 1517)">
      <text id="menu" transform="translate(31.048 0) rotate(90)" fill="#3f709a" font-size="48" font-family="AvenirNext-DemiBold, Avenir Next" font-weight="300" letter-spacing="0.1em"><tspan x="0" y="0">menu</tspan></text>
      <g id="グループ_152" data-name="グループ 152" transform="translate(0 1.076)">
        <g id="グループ_151" data-name="グループ 151">
          <g id="グループ_150" data-name="グループ 150">
            <path id="パス_400" data-name="パス 400" d="M228.3,290.1a11.938,11.938,0,0,1-6.95-8.121c-.883,3.475-2.234,6.212-6.609,8.319l-1.026-1.081a10.76,10.76,0,0,0,5.4-4.717c1.477-2.629,1.477-5.816,1.477-10.1l1.549.108c.306.018.486.054.486.216,0,.18-.18.307-.5.54-.054.505-.144,3.007-.144,3.547a10.669,10.669,0,0,0,1.927,5.87,12.671,12.671,0,0,0,5.419,4.249Z" transform="translate(-213.247 -274.403)" fill="#3f709a"/>
            <path id="パス_401" data-name="パス 401" d="M216.884,296.723a15.12,15.12,0,0,1-2.377,3.061l-1.26-.792a14.255,14.255,0,0,0,3.547-5.4l1.279.757c.162.09.324.18.324.36,0,.216-.271.252-.5.287-.109.181-.2.379-.307.559h10.749v1.17Zm4.934,12.8a21.993,21.993,0,0,0-2.269-2.4,14.143,14.143,0,0,1-4.861,2.629l-.792-1.26a12.079,12.079,0,0,0,4.663-2.233,24.7,24.7,0,0,0-2-1.512l.81-1.135c1.027.721,1.387.991,2.233,1.675a9.715,9.715,0,0,0,1.8-2.52l1.1.756c.09.072.288.215.288.378,0,.2-.27.251-.558.305a13.931,13.931,0,0,1-1.62,1.963,23.532,23.532,0,0,1,2.2,2.323Zm5.941.792c-1.3,0-2.268-2.161-2.268-5.312a17.181,17.181,0,0,1,.27-3.025H215.444v-1.17h11.937a16.425,16.425,0,0,0-.594,4.123c0,1.728.432,3.6.972,3.6.343,0,.6-.81.811-1.512l1.08,1.08C229.11,309.543,228.39,310.318,227.759,310.318Zm-11.433-10.966v-1.17h10.786v1.17Z" transform="translate(-213.247 -274.403)" fill="#3f709a"/>
            <path id="パス_402" data-name="パス 402" d="M218.865,316.849a18.6,18.6,0,0,1,3.241,2.125,21.769,21.769,0,0,0,2.052-5.258l1.441.612c.144.054.36.18.36.342,0,.145-.234.2-.558.216a25.351,25.351,0,0,1-2.179,5.023,18.118,18.118,0,0,1,2.683,2.9l-1.17,1.17a12.461,12.461,0,0,0-2.305-2.862,17.842,17.842,0,0,1-5.87,5.347l-1.17-1.081a15.038,15.038,0,0,0,5.96-5.2,18.961,18.961,0,0,0-3.277-2.106Z" transform="translate(-213.247 -274.403)" fill="#3f709a"/>
            <path id="パス_403" data-name="パス 403" d="M214.543,338.973h13.739v1.458H214.543Zm1.982-6.842v-1.459H226.5v1.459Z" transform="translate(-213.247 -274.403)" fill="#3f709a"/>
            <path id="パス_404" data-name="パス 404" d="M225.527,352.149h3.817v1.08H217.37v-1.08h7l.865-5.618h-5.492V345.45h6.806Z" transform="translate(-213.247 -274.403)" fill="#3f709a"/>
            <path id="パス_405" data-name="パス 405" d="M220.684,370.617V357.635l1.134.055c.486.036.738.036.738.252a.281.281,0,0,1-.108.216c-.234.234-.27.251-.36.36v12.1Z" transform="translate(-213.247 -274.403)" fill="#3f709a"/>
          </g>
        </g>
      </g>
    </g>
  </g>
</svg>
