<svg xmlns="http://www.w3.org/2000/svg" width="100" height="211" viewBox="0 0 100 211">
  <g id="グループ_180" data-name="グループ 180" transform="translate(384 -1496)">
    <rect id="長方形_164" data-name="長方形 164" width="100" height="211" transform="translate(-384 1496)" fill="#f7f5f0"/>
    <g id="グループ_157" data-name="グループ 157" transform="translate(-373 1517)">
      <text id="owner" transform="translate(29.504 0) rotate(90)" fill="#3f709a" font-size="48" font-family="AvenirNext-DemiBold, Avenir Next" font-weight="300" letter-spacing="0.1em"><tspan x="0" y="0">owner</tspan></text>
      <g id="グループ_156" data-name="グループ 156" transform="translate(0 1.021)">
        <g id="グループ_155" data-name="グループ 155">
          <g id="グループ_154" data-name="グループ 154">
            <path id="パス_406" data-name="パス 406" d="M95.1,292.072a15.791,15.791,0,0,1-6.572,5.761l-1.206-1.08a13.835,13.835,0,0,0,3.961-2.377,12.638,12.638,0,0,0,3.168-3.709H87.7v-1.314h7.4v-3.566l1.494.18c.145.019.289.091.289.2,0,.091-.036.126-.379.4v2.791h4.123v1.314H96.5v7.922c0,1.567-.756,1.837-3.276,1.819l-.523-1.495c.559.054,1.369.09,1.711.09.594,0,.684-.071.684-.756Z" transform="translate(-86.797 -285.787)" fill="#3f709a"/>
            <path id="パス_407" data-name="パス 407" d="M93.262,317.2V304.22l1.134.055c.486.036.738.036.738.252a.278.278,0,0,1-.108.215c-.234.235-.27.252-.36.361v12.1Z" transform="translate(-86.797 -285.787)" fill="#3f709a"/>
            <path id="パス_408" data-name="パス 408" d="M101.436,325.1v1.314H95.153a10.609,10.609,0,0,1-1.694,5.654,10.172,10.172,0,0,1-4.087,3.349L88.166,334.1a7.025,7.025,0,0,0,4.177-3.043,9.627,9.627,0,0,0,1.351-4.646H86.8V325.1h6.9c0-2.647,0-3.763-.054-4.3l1.818.126c.216.018.342.108.342.216s-.306.342-.5.486c-.09,2.286-.09,2.538-.108,3.475Z" transform="translate(-86.797 -285.787)" fill="#3f709a"/>
            <path id="パス_409" data-name="パス 409" d="M93.262,351.817V338.834l1.134.055c.486.036.738.036.738.252a.281.281,0,0,1-.108.216c-.234.234-.27.252-.36.36v12.1Z" transform="translate(-86.797 -285.787)" fill="#3f709a"/>
          </g>
        </g>
      </g>
    </g>
  </g>
</svg>
