<svg xmlns="http://www.w3.org/2000/svg" width="133.508" height="133.508" viewBox="0 0 133.508 133.508">
  <g id="グループ_175" data-name="グループ 175" transform="translate(-544.162 -175.744)">
    <circle id="楕円形_22" data-name="楕円形 22" cx="66.754" cy="66.754" r="66.754" transform="translate(544.162 175.744)" fill="#3f709a"/>
    <g id="グループ_171" data-name="グループ 171" transform="translate(572.108 225.621)">
      <g id="グループ_170" data-name="グループ 170" transform="translate(-5 -2.02)">
        <path id="パス_436" data-name="パス 436" d="M580.591,242.38h-.058a2.589,2.589,0,0,1-1.123,1.016,3.806,3.806,0,0,1-1.76.4,5.087,5.087,0,0,1-1.17-.144,3.483,3.483,0,0,1-1.123-.485,2.784,2.784,0,0,1-.852-.89,2.566,2.566,0,0,1-.338-1.364,2.313,2.313,0,0,1,.59-1.665,3.822,3.822,0,0,1,1.519-.948,8.586,8.586,0,0,1,2.061-.435q1.131-.107,2.215-.107v-.232a1.437,1.437,0,0,0-.628-1.288,2.665,2.665,0,0,0-1.5-.416,3.349,3.349,0,0,0-1.411.31,3.763,3.763,0,0,0-1.123.754l-1.2-1.413a5.234,5.234,0,0,1,1.83-1.1,6.238,6.238,0,0,1,2.1-.368,5.152,5.152,0,0,1,2.042.349,3.336,3.336,0,0,1,1.267.909,3.25,3.25,0,0,1,.648,1.257,5.433,5.433,0,0,1,.184,1.394v5.651h-2.168Zm-.039-3.058h-.523q-.561,0-1.18.048a5.107,5.107,0,0,0-1.142.213,2.414,2.414,0,0,0-.87.464,1.026,1.026,0,0,0-.349.822.987.987,0,0,0,.146.552,1.111,1.111,0,0,0,.378.358,1.666,1.666,0,0,0,.521.194,2.948,2.948,0,0,0,.581.058,2.426,2.426,0,0,0,1.82-.639,2.4,2.4,0,0,0,.618-1.742Z" transform="translate(-574.166 -228.93)" fill="#fff"/>
        <path id="パス_437" data-name="パス 437" d="M588.81,229.294v6.523h.057a3.86,3.86,0,0,1,.445-.485,3.463,3.463,0,0,1,.65-.463,4.039,4.039,0,0,1,2.022-.5,4.336,4.336,0,0,1,3.25,1.414,4.654,4.654,0,0,1,.93,1.548,5.47,5.47,0,0,1,.329,1.916,5.732,5.732,0,0,1-.318,1.925,4.756,4.756,0,0,1-.91,1.568,4.38,4.38,0,0,1-1.432,1.065,4.43,4.43,0,0,1-1.907.4,4.122,4.122,0,0,1-1.848-.426,3.155,3.155,0,0,1-1.345-1.239h-.039v1.394h-2.207V229.294Zm5.321,9.948a3.642,3.642,0,0,0-.164-1.074,3.042,3.042,0,0,0-.493-.958,2.478,2.478,0,0,0-.833-.687,2.536,2.536,0,0,0-1.18-.261,2.371,2.371,0,0,0-1.142.27,2.934,2.934,0,0,0-1.4,1.665,3.375,3.375,0,0,0-.183,1.084,3.294,3.294,0,0,0,.183,1.074,2.984,2.984,0,0,0,.542.958,2.79,2.79,0,0,0,.862.686,2.661,2.661,0,0,0,2.322-.01,2.581,2.581,0,0,0,.833-.7,3.034,3.034,0,0,0,.493-.967A3.739,3.739,0,0,0,594.131,239.242Z" transform="translate(-573.212 -229.294)" fill="#fff"/>
        <path id="パス_438" data-name="パス 438" d="M599.149,238.878a4.9,4.9,0,0,1,.4-2,4.675,4.675,0,0,1,1.074-1.539,4.742,4.742,0,0,1,1.607-.987,5.754,5.754,0,0,1,3.948,0,4.745,4.745,0,0,1,1.605.987,4.673,4.673,0,0,1,1.074,1.539,4.92,4.92,0,0,1,.4,2,4.992,4.992,0,0,1-.4,2.013,4.757,4.757,0,0,1-1.074,1.558,4.9,4.9,0,0,1-1.605,1.016,5.485,5.485,0,0,1-3.948,0,4.894,4.894,0,0,1-1.607-1.016,4.759,4.759,0,0,1-1.074-1.558A4.974,4.974,0,0,1,599.149,238.878Zm2.362,0a3.709,3.709,0,0,0,.165,1.084,2.986,2.986,0,0,0,.493.968,2.563,2.563,0,0,0,.832.7,2.786,2.786,0,0,0,2.4,0,2.579,2.579,0,0,0,.833-.7,3.009,3.009,0,0,0,.493-.968,3.742,3.742,0,0,0,.164-1.084,3.646,3.646,0,0,0-.164-1.074,3.015,3.015,0,0,0-.493-.958,2.478,2.478,0,0,0-.833-.687,2.89,2.89,0,0,0-2.4,0,2.463,2.463,0,0,0-.832.687,2.992,2.992,0,0,0-.493.958A3.614,3.614,0,0,0,601.511,238.878Z" transform="translate(-572.231 -228.93)" fill="#fff"/>
        <path id="パス_439" data-name="パス 439" d="M620.887,243.542h-2.206v-1.49h-.039a3.009,3.009,0,0,1-1.074,1.228,3.089,3.089,0,0,1-1.809.532,3.5,3.5,0,0,1-1.558-.319,3.078,3.078,0,0,1-1.065-.843,3.375,3.375,0,0,1-.609-1.2,5.039,5.039,0,0,1-.194-1.393v-5.806h2.322V239.4a6.545,6.545,0,0,0,.058.851,2.282,2.282,0,0,0,.251.8,1.66,1.66,0,0,0,.533.59,1.555,1.555,0,0,0,.9.233,2,2,0,0,0,1.635-.794,2.521,2.521,0,0,0,.4-.8,3.2,3.2,0,0,0,.136-.919v-5.109h2.322Z" transform="translate(-571.21 -228.91)" fill="#fff"/>
        <path id="パス_440" data-name="パス 440" d="M623.415,236.3v-1.859h1.626v-2.69h2.283v2.69h2.323V236.3h-2.323v4.315a2.116,2.116,0,0,0,.223,1.026q.223.406,1,.406a2.866,2.866,0,0,0,.5-.048,2.025,2.025,0,0,0,.484-.145l.078,1.82a3.814,3.814,0,0,1-.736.183,5.15,5.15,0,0,1-.812.068,3.723,3.723,0,0,1-1.509-.261,2.291,2.291,0,0,1-.919-.717,2.622,2.622,0,0,1-.464-1.045,6.048,6.048,0,0,1-.126-1.267V236.3Z" transform="translate(-570.352 -229.103)" fill="#fff"/>
        <path id="パス_441" data-name="パス 441" d="M647.326,243.542h-2.207v-1.49h-.038a3.011,3.011,0,0,1-1.074,1.228,3.093,3.093,0,0,1-1.81.532,3.5,3.5,0,0,1-1.557-.319,3.059,3.059,0,0,1-1.064-.843,3.375,3.375,0,0,1-.61-1.2,5.039,5.039,0,0,1-.194-1.393v-5.806h2.323V239.4a6.56,6.56,0,0,0,.057.851,2.3,2.3,0,0,0,.252.8,1.655,1.655,0,0,0,.532.59,1.558,1.558,0,0,0,.9.233,2,2,0,0,0,.959-.223,2.029,2.029,0,0,0,.677-.571,2.518,2.518,0,0,0,.4-.8,3.2,3.2,0,0,0,.136-.919v-5.109h2.322Z" transform="translate(-569.163 -228.91)" fill="#fff"/>
        <path id="パス_442" data-name="パス 442" d="M656.263,236.749a2.689,2.689,0,0,0-.852-.706,2.39,2.39,0,0,0-1.18-.3,2.268,2.268,0,0,0-1.027.233.8.8,0,0,0-.463.774.778.778,0,0,0,.512.765,9.553,9.553,0,0,0,1.5.455,8.485,8.485,0,0,1,1.055.309,3.9,3.9,0,0,1,.967.513,2.533,2.533,0,0,1,.706.794,2.277,2.277,0,0,1,.272,1.151,2.976,2.976,0,0,1-.32,1.442,2.712,2.712,0,0,1-.851.959,3.584,3.584,0,0,1-1.238.531,6.424,6.424,0,0,1-1.462.165,5.814,5.814,0,0,1-2.11-.4,4.456,4.456,0,0,1-1.7-1.132l1.529-1.432a3.058,3.058,0,0,0,1.006.832,2.88,2.88,0,0,0,1.374.33,2.362,2.362,0,0,0,.514-.058,1.75,1.75,0,0,0,.483-.184,1,1,0,0,0,.359-.338.96.96,0,0,0,.135-.523.859.859,0,0,0-.531-.833,8.679,8.679,0,0,0-1.6-.5,7.492,7.492,0,0,1-1.015-.3,3.292,3.292,0,0,1-.88-.484,2.214,2.214,0,0,1-.619-.746,2.357,2.357,0,0,1-.233-1.1,2.657,2.657,0,0,1,.32-1.336,2.744,2.744,0,0,1,.841-.919,3.789,3.789,0,0,1,1.181-.532,5.3,5.3,0,0,1,1.353-.175,5.7,5.7,0,0,1,1.965.349,3.331,3.331,0,0,1,1.519,1.065Z" transform="translate(-568.288 -228.93)" fill="#fff"/>
      </g>
    </g>
    <g id="グループ_174" data-name="グループ 174" transform="translate(592.492 248.11)">
      <g id="グループ_173" data-name="グループ 173" transform="translate(-6 6.211)">
        <path id="パス_444" data-name="パス 444" d="M607.177,259.689a2.476,2.476,0,0,0-.79-.657,2.225,2.225,0,0,0-1.1-.279,2.1,2.1,0,0,0-.954.216.745.745,0,0,0-.43.72.725.725,0,0,0,.475.711,8.936,8.936,0,0,0,1.4.423,7.822,7.822,0,0,1,.981.288,3.677,3.677,0,0,1,.9.477,2.375,2.375,0,0,1,.657.738,2.129,2.129,0,0,1,.252,1.071,2.791,2.791,0,0,1-.3,1.341,2.546,2.546,0,0,1-.794.891,3.343,3.343,0,0,1-1.15.495,6.054,6.054,0,0,1-1.359.153,5.372,5.372,0,0,1-1.962-.369,4.137,4.137,0,0,1-1.584-1.053l1.422-1.332a2.819,2.819,0,0,0,.936.774,2.679,2.679,0,0,0,1.276.306,2.188,2.188,0,0,0,.477-.054,1.6,1.6,0,0,0,.45-.171.951.951,0,0,0,.335-.315.883.883,0,0,0,.126-.486.8.8,0,0,0-.5-.774,7.844,7.844,0,0,0-1.487-.468,7.292,7.292,0,0,1-.943-.279,3.047,3.047,0,0,1-.819-.45,2.066,2.066,0,0,1-.576-.693,2.2,2.2,0,0,1-.218-1.026,2.451,2.451,0,0,1,.3-1.242,2.527,2.527,0,0,1,.782-.855,3.558,3.558,0,0,1,1.1-.5,4.911,4.911,0,0,1,1.262-.162,5.3,5.3,0,0,1,1.825.324,3.08,3.08,0,0,1,1.413.99Z" transform="translate(-601.419 -252.417)" fill="#fff"/>
        <path id="パス_445" data-name="パス 445" d="M613.556,259.779a1.9,1.9,0,0,0-.756-.6,2.336,2.336,0,0,0-1.026-.243,2.165,2.165,0,0,0-1.044.243,2.267,2.267,0,0,0-.747.639,2.743,2.743,0,0,0-.441.891,3.564,3.564,0,0,0-.144,1,3.421,3.421,0,0,0,.153,1,2.833,2.833,0,0,0,.459.891,2.334,2.334,0,0,0,.765.639,2.255,2.255,0,0,0,1.071.243,2.756,2.756,0,0,0,1.008-.2,1.932,1.932,0,0,0,.81-.576l1.35,1.368a3.6,3.6,0,0,1-1.377.891,5.121,5.121,0,0,1-1.809.315,5.347,5.347,0,0,1-1.809-.306,4.221,4.221,0,0,1-2.5-2.34,4.762,4.762,0,0,1-.369-1.926,4.665,4.665,0,0,1,.369-1.89,4.332,4.332,0,0,1,1-1.44,4.475,4.475,0,0,1,1.467-.918,5.006,5.006,0,0,1,3.636.036,3.464,3.464,0,0,1,1.413.99Z" transform="translate(-596.836 -252.417)" fill="#fff"/>
        <path id="パス_446" data-name="パス 446" d="M613.308,257.385h2.07v1.44h.036a3.14,3.14,0,0,1,1.008-1.224,2.5,2.5,0,0,1,1.512-.468c.085,0,.175,0,.27.009a.93.93,0,0,1,.252.045v1.98a2.783,2.783,0,0,0-.369-.072,2.413,2.413,0,0,0-.3-.018,2.289,2.289,0,0,0-1.188.27,2.146,2.146,0,0,0-.7.648,2.28,2.28,0,0,0-.342.774,2.91,2.91,0,0,0-.09.63v4.626h-2.16Z" transform="translate(-591.908 -252.417)" fill="#fff"/>
        <path id="パス_447" data-name="パス 447" d="M617.489,261.669a4.589,4.589,0,0,1,.367-1.863,4.3,4.3,0,0,1,2.495-2.349,5.365,5.365,0,0,1,3.672,0,4.293,4.293,0,0,1,2.493,2.349,4.56,4.56,0,0,1,.369,1.863,4.628,4.628,0,0,1-.369,1.872,4.471,4.471,0,0,1-1,1.449,4.6,4.6,0,0,1-1.494.945,5.1,5.1,0,0,1-3.672,0,4.579,4.579,0,0,1-1.494-.945,4.477,4.477,0,0,1-1-1.449A4.657,4.657,0,0,1,617.489,261.669Zm2.2,0a3.444,3.444,0,0,0,.153,1.008,2.818,2.818,0,0,0,.459.9,2.43,2.43,0,0,0,.774.648,2.6,2.6,0,0,0,2.232,0,2.4,2.4,0,0,0,.772-.648,2.784,2.784,0,0,0,.461-.9,3.5,3.5,0,0,0,.153-1.008,3.4,3.4,0,0,0-.153-1,2.8,2.8,0,0,0-.461-.891,2.274,2.274,0,0,0-.772-.639,2.684,2.684,0,0,0-2.232,0,2.3,2.3,0,0,0-.774.639,2.829,2.829,0,0,0-.459.891A3.341,3.341,0,0,0,619.685,261.669Z" transform="translate(-588.563 -252.417)" fill="#fff"/>
        <path id="パス_448" data-name="パス 448" d="M624.889,254.513h2.16v13.608h-2.16Z" transform="translate(-582.643 -254.513)" fill="#fff"/>
        <path id="パス_449" data-name="パス 449" d="M628.568,254.513h2.162v13.608h-2.162Z" transform="translate(-579.7 -254.513)" fill="#fff"/>
      </g>
    </g>
  </g>
</svg>
