<svg xmlns="http://www.w3.org/2000/svg" width="100" height="171" viewBox="0 0 100 171">
  <g id="グループ_178" data-name="グループ 178" transform="translate(613 -1496)">
    <rect id="長方形_167" data-name="長方形 167" width="100" height="171" transform="translate(-613 1496)" fill="#f7f5f0"/>
    <g id="グループ_145" data-name="グループ 145" transform="translate(-603 1517)">
      <text id="shop" transform="translate(31.441 0) rotate(90)" fill="#3f709a" font-size="48" font-family="AvenirNext-DemiBold, Avenir Next" font-weight="300" letter-spacing="0.1em"><tspan x="0" y="0">shop</tspan></text>
      <g id="グループ_144" data-name="グループ 144" transform="translate(0 1.021)">
        <g id="グループ_143" data-name="グループ 143">
          <g id="グループ_142" data-name="グループ 142">
            <path id="パス_392" data-name="パス 392" d="M621.327,302.261a18.481,18.481,0,0,1,3.62,1.927l-.666,1.314a14.853,14.853,0,0,0-3.565-2.016Zm12.191,1.783a23.962,23.962,0,0,1-4.772,5.276,17.212,17.212,0,0,1-6.248,3.438l-.882-1.349a15.156,15.156,0,0,0,5.762-2.864,20.029,20.029,0,0,0,5.167-5.672Zm-10.264-5.906a17.959,17.959,0,0,1,3.566,1.927l-.666,1.26a13.544,13.544,0,0,0-3.512-2.016Z" transform="translate(-620.247 -298.138)" fill="#3f709a"/>
            <path id="パス_393" data-name="パス 393" d="M632.347,326.348h-8.174v-1.026h8.174v-2.953H624.5v-1.026h7.85v-2.935h-8.012v-1.027h9.219V327.2h-1.207Z" transform="translate(-620.247 -298.138)" fill="#3f709a"/>
            <path id="パス_394" data-name="パス 394" d="M624.893,334.861a14.236,14.236,0,0,0-1.242-2.576l.972-.45a12.35,12.35,0,0,1,1.243,2.593Zm8.625-3.494c.054.037.359.126.414.163.071.036.143.089.143.162,0,.143-.162.179-.377.252a14.266,14.266,0,0,1-2.161,5.455,10.379,10.379,0,0,1-4.681,3.8l-1.027-.9a8.91,8.91,0,0,0,4.934-3.547,13.209,13.209,0,0,0,1.854-5.726Zm-5.2,2.629a14.825,14.825,0,0,0-1.242-2.575l.99-.45a15.647,15.647,0,0,1,1.242,2.575Z" transform="translate(-620.247 -298.138)" fill="#3f709a"/>
            <path id="パス_395" data-name="パス 395" d="M620.247,348.252v-1.279h9.94a2.494,2.494,0,0,0,.809-.323l1.351,1.17c-.45.45-.5.486-.612.755-1.386,4.863-2.521,6.681-4.807,8.553a15,15,0,0,1-3.962,2.287l-1.26-1.224a12.742,12.742,0,0,0,5.312-3.1,11.784,11.784,0,0,0,3.223-6.842Zm11.488-2.665a1.764,1.764,0,1,1,1.783,1.765A1.779,1.779,0,0,1,631.735,345.587Zm2.718,0a.937.937,0,0,0-.954-.954.963.963,0,1,0,.019,1.926A.949.949,0,0,0,634.453,345.587Z" transform="translate(-620.247 -298.138)" fill="#3f709a"/>
          </g>
        </g>
      </g>
    </g>
  </g>
</svg>
