<svg id="グループ_59" data-name="グループ 59" xmlns="http://www.w3.org/2000/svg" width="293.068" height="17.912" viewBox="0 0 293.068 17.912">
  <g id="グループ_15" data-name="グループ 15">
    <g id="グループ_14" data-name="グループ 14">
      <path id="パス_42" data-name="パス 42" d="M300.956,22.893h6.679a16.8,16.8,0,0,1,2.34.164,6.4,6.4,0,0,1,2.112.658,4.046,4.046,0,0,1,1.519,1.379,4.223,4.223,0,0,1,.582,2.353,3.752,3.752,0,0,1-.848,2.517,4.649,4.649,0,0,1-2.239,1.43v.051a5.116,5.116,0,0,1,1.607.493,4.27,4.27,0,0,1,1.239.936,3.99,3.99,0,0,1,.8,1.328,4.655,4.655,0,0,1,.279,1.619,4.3,4.3,0,0,1-.607,2.365,4.754,4.754,0,0,1-1.569,1.531,6.839,6.839,0,0,1-2.162.835,11.571,11.571,0,0,1-2.391.253h-7.336Zm3.946,7.159h2.858a4.005,4.005,0,0,0,.9-.1,2.47,2.47,0,0,0,.8-.329,1.7,1.7,0,0,0,.569-.607,1.82,1.82,0,0,0,.215-.911,1.646,1.646,0,0,0-.24-.923,1.678,1.678,0,0,0-.62-.569,2.943,2.943,0,0,0-.86-.291,5.162,5.162,0,0,0-.937-.088h-2.681Zm0,7.412h3.542a4.344,4.344,0,0,0,.924-.1,2.458,2.458,0,0,0,.848-.354,2.007,2.007,0,0,0,.619-.658,1.9,1.9,0,0,0,.24-.986,1.586,1.586,0,0,0-.315-1.025,2.018,2.018,0,0,0-.8-.594,4.1,4.1,0,0,0-1.037-.279,7.662,7.662,0,0,0-1.037-.076H304.9Z" transform="translate(-300.956 -22.893)" fill="#4a4a4a"/>
      <path id="パス_43" data-name="パス 43" d="M328.3,22.893h3.264l7.791,17.91H334.9l-1.543-3.794H326.4L324.913,40.8h-4.351Zm1.519,5.211-2.175,5.565h4.376Z" transform="translate(-300.956 -22.893)" fill="#4a4a4a"/>
      <path id="パス_44" data-name="パス 44" d="M346.361,22.893h3.947V30.33l6.957-7.437h5.162l-7.969,8.323,8.651,9.588h-5.515l-7.285-8.5v8.5h-3.948Z" transform="translate(-300.956 -22.893)" fill="#4a4a4a"/>
      <path id="パス_45" data-name="パス 45" d="M369.689,22.893h12.168v3.643h-8.222v3.339H381.4v3.643h-7.767v3.643h8.677V40.8H369.688Z" transform="translate(-300.956 -22.893)" fill="#4a4a4a"/>
      <path id="パス_46" data-name="パス 46" d="M390.534,22.893h6.932a12.206,12.206,0,0,1,2.593.266,6.159,6.159,0,0,1,2.151.885,4.431,4.431,0,0,1,1.467,1.67,5.651,5.651,0,0,1,.543,2.618,5.245,5.245,0,0,1-.986,3.225,4.44,4.44,0,0,1-2.884,1.683L404.9,40.8h-4.731l-3.744-7.159H394.48V40.8h-3.946Zm3.946,7.412h2.327q.532,0,1.126-.038a3.5,3.5,0,0,0,1.075-.228,1.851,1.851,0,0,0,.8-.594,1.8,1.8,0,0,0,.317-1.138,1.739,1.739,0,0,0-.986-1.708,3.157,3.157,0,0,0-.986-.291,8.087,8.087,0,0,0-1.088-.076h-2.58Z" transform="translate(-300.956 -22.893)" fill="#4a4a4a"/>
      <path id="パス_47" data-name="パス 47" d="M416.388,33.163l-6.729-10.27h4.908l3.794,6.7,4.022-6.7h4.68l-6.729,10.27V40.8h-3.947Z" transform="translate(-300.956 -22.893)" fill="#4a4a4a"/>
    </g>
  </g>
  <g id="グループ_57" data-name="グループ 57" transform="translate(135.451 0)">
    <path id="パス_48" data-name="パス 48" d="M452.033,27.292a.8.8,0,0,1-1.026,0,3.726,3.726,0,0,0-.9-.567,4.524,4.524,0,0,0-1.865-.361,4.663,4.663,0,0,0-3.527,1.553,5.314,5.314,0,0,0-1.036,1.744,6.648,6.648,0,0,0,0,4.394,5.468,5.468,0,0,0,1.022,1.733,4.647,4.647,0,0,0,1.529,1.144,4.425,4.425,0,0,0,1.89.409,4.237,4.237,0,0,0,2.047-.481,4.021,4.021,0,0,0,1.023-.787.808.808,0,0,1,1.071-.1l1.83,1.363a.816.816,0,0,1,.159,1.143c-.018.024-.038.047-.058.069a6.43,6.43,0,0,1-2.169,1.532,8.488,8.488,0,0,1-3.418.722,10.512,10.512,0,0,1-3.684-.626,8.414,8.414,0,0,1-2.912-1.793,8.132,8.132,0,0,1-1.914-2.828,10.358,10.358,0,0,1,0-7.415,8.126,8.126,0,0,1,1.914-2.828,8.431,8.431,0,0,1,2.912-1.794,10.488,10.488,0,0,1,3.684-.625,8.925,8.925,0,0,1,1.5.132,8.157,8.157,0,0,1,1.541.421,6.866,6.866,0,0,1,1.457.771,5.748,5.748,0,0,1,.629.5.812.812,0,0,1,.035,1.146.936.936,0,0,1-.08.074Z" transform="translate(-439.407 -22.893)" fill="#4a4a4a"/>
    <path id="パス_49" data-name="パス 49" d="M458.3,31.849a9.626,9.626,0,0,1,.686-3.708,8.113,8.113,0,0,1,1.914-2.828,8.435,8.435,0,0,1,2.913-1.794,11.156,11.156,0,0,1,7.366,0,8.435,8.435,0,0,1,2.913,1.794,8.112,8.112,0,0,1,1.914,2.828,10.358,10.358,0,0,1,0,7.415,8.131,8.131,0,0,1-1.914,2.828,8.408,8.408,0,0,1-2.913,1.793,11.143,11.143,0,0,1-7.366,0,8.409,8.409,0,0,1-2.913-1.793,8.131,8.131,0,0,1-1.914-2.828A9.625,9.625,0,0,1,458.3,31.849Zm3.9,0a6.247,6.247,0,0,0,.374,2.2,5.032,5.032,0,0,0,1.071,1.733,4.907,4.907,0,0,0,1.673,1.144,6.01,6.01,0,0,0,4.357,0,4.9,4.9,0,0,0,1.673-1.144,5.049,5.049,0,0,0,1.072-1.733,6.661,6.661,0,0,0,0-4.394,5.02,5.02,0,0,0-1.072-1.745,4.9,4.9,0,0,0-1.673-1.144,6.01,6.01,0,0,0-4.357,0,4.907,4.907,0,0,0-1.673,1.144,5.018,5.018,0,0,0-1.071,1.745,6.293,6.293,0,0,0-.377,2.191Z" transform="translate(-439.407 -22.893)" fill="#4a4a4a"/>
    <path id="パス_50" data-name="パス 50" d="M493.448,27.226a.943.943,0,0,1-1.191,0,3.716,3.716,0,0,0-.82-.5,4.526,4.526,0,0,0-1.866-.361,4.665,4.665,0,0,0-3.527,1.553,5.308,5.308,0,0,0-1.036,1.745,6.646,6.646,0,0,0,0,4.393,5.472,5.472,0,0,0,1.023,1.733,4.633,4.633,0,0,0,1.529,1.144,4.421,4.421,0,0,0,1.89.409,4.23,4.23,0,0,0,2.046-.481,4,4,0,0,0,.962-.723.936.936,0,0,1,1.225-.09L495.3,37.25a.942.942,0,0,1,.194,1.317.952.952,0,0,1-.076.09,6.446,6.446,0,0,1-2.067,1.426,8.5,8.5,0,0,1-3.418.721,10.461,10.461,0,0,1-3.683-.626,8.409,8.409,0,0,1-2.913-1.793,8.113,8.113,0,0,1-1.914-2.828,10.358,10.358,0,0,1,0-7.415,8.131,8.131,0,0,1,1.914-2.828,8.426,8.426,0,0,1,2.913-1.794,10.505,10.505,0,0,1,3.683-.625,9.03,9.03,0,0,1,1.5.132,8.231,8.231,0,0,1,1.541.421,6.928,6.928,0,0,1,1.456.771,5.424,5.424,0,0,1,.476.366.951.951,0,0,1-.008,1.452Z" transform="translate(-439.407 -22.893)" fill="#4a4a4a"/>
    <path id="パス_51" data-name="パス 51" d="M499.634,31.849a9.645,9.645,0,0,1,.686-3.708,8.126,8.126,0,0,1,1.914-2.828,8.435,8.435,0,0,1,2.913-1.794,11.156,11.156,0,0,1,7.366,0,8.435,8.435,0,0,1,2.913,1.794,8.128,8.128,0,0,1,1.913,2.828,10.358,10.358,0,0,1,0,7.415,8.128,8.128,0,0,1-1.913,2.828,8.433,8.433,0,0,1-2.913,1.793,11.143,11.143,0,0,1-7.366,0,8.417,8.417,0,0,1-2.913-1.793,8.145,8.145,0,0,1-1.914-2.828A9.662,9.662,0,0,1,499.634,31.849Zm3.9,0a6.223,6.223,0,0,0,.373,2.2,5.031,5.031,0,0,0,1.071,1.733,4.9,4.9,0,0,0,1.673,1.144,6.01,6.01,0,0,0,4.357,0,4.9,4.9,0,0,0,1.673-1.144,5.064,5.064,0,0,0,1.072-1.733,6.661,6.661,0,0,0,0-4.394,5.036,5.036,0,0,0-1.072-1.745,4.907,4.907,0,0,0-1.673-1.144,6.01,6.01,0,0,0-4.357,0,4.9,4.9,0,0,0-1.673,1.144,5,5,0,0,0-1.071,1.745,6.246,6.246,0,0,0-.375,2.191Z" transform="translate(-439.407 -22.893)" fill="#4a4a4a"/>
    <circle id="楕円形_9" data-name="楕円形 9" cx="1.505" cy="1.505" r="1.505" transform="translate(26.585 7.451)" fill="#4a4a4a"/>
    <circle id="楕円形_10" data-name="楕円形 10" cx="1.505" cy="1.505" r="1.505" transform="translate(67.919 7.451)" fill="#4a4a4a"/>
  </g>
  <g id="グループ_58" data-name="グループ 58" transform="translate(226.653 7.09)">
    <path id="パス_205" data-name="パス 205" d="M532.609,33.763h2.016v.924h.028a1.68,1.68,0,0,1,.281-.393,2.017,2.017,0,0,1,.433-.349,2.447,2.447,0,0,1,.574-.252,2.381,2.381,0,0,1,.7-.1,2.658,2.658,0,0,1,1.266.294,1.857,1.857,0,0,1,.833.924,2.271,2.271,0,0,1,.882-.939A2.66,2.66,0,0,1,540.9,33.6a2.6,2.6,0,0,1,1.155.231,1.893,1.893,0,0,1,.742.629,2.684,2.684,0,0,1,.392.939,5.3,5.3,0,0,1,.12,1.155v4.018h-2.1V36.6a1.572,1.572,0,0,0-.2-.819.767.767,0,0,0-.721-.343,1.392,1.392,0,0,0-.609.119.994.994,0,0,0-.392.329,1.382,1.382,0,0,0-.21.49,2.677,2.677,0,0,0-.063.588v3.6h-2.1v-3.6c0-.121-.005-.27-.014-.448a1.768,1.768,0,0,0-.1-.5.962.962,0,0,0-.273-.406.8.8,0,0,0-.553-.168,1.3,1.3,0,0,0-.658.147,1.006,1.006,0,0,0-.385.392,1.588,1.588,0,0,0-.175.553,4.934,4.934,0,0,0-.042.644v3.388h-2.1Z" transform="translate(-532.609 -29.983)" fill="#4a4a4a"/>
    <path id="パス_206" data-name="パス 206" d="M550.108,39.713h-.027a1.967,1.967,0,0,1-.932.783,3.243,3.243,0,0,1-2.141.106,2.341,2.341,0,0,1-.778-.4,1.937,1.937,0,0,1-.532-.659,2,2,0,0,1-.2-.909,2.084,2.084,0,0,1,.217-.994,1.923,1.923,0,0,1,.588-.672,2.9,2.9,0,0,1,.846-.413,6.026,6.026,0,0,1,.988-.217,9.241,9.241,0,0,1,1.022-.084c.34-.01.655-.014.944-.014a1.093,1.093,0,0,0-.4-.889,1.437,1.437,0,0,0-.945-.329,2.055,2.055,0,0,0-.946.217,2.559,2.559,0,0,0-.762.594l-1.121-1.147a3.864,3.864,0,0,1,1.373-.819,4.9,4.9,0,0,1,1.624-.273,4.247,4.247,0,0,1,1.519.231,2.2,2.2,0,0,1,.951.679,2.579,2.579,0,0,1,.5,1.1,7.152,7.152,0,0,1,.141,1.505v3.458h-1.933Zm-.517-2.129c-.159,0-.358.008-.6.022a3.048,3.048,0,0,0-.687.119,1.507,1.507,0,0,0-.559.294.678.678,0,0,0-.232.546.6.6,0,0,0,.323.559,1.341,1.341,0,0,0,.672.183,2.1,2.1,0,0,0,.594-.084,1.813,1.813,0,0,0,.512-.238,1.177,1.177,0,0,0,.357-.392,1.139,1.139,0,0,0,.132-.56v-.449Z" transform="translate(-532.609 -29.983)" fill="#4a4a4a"/>
    <path id="パス_207" data-name="パス 207" d="M554.406,29.983h2.1v6.468l2.324-2.688h2.576l-2.7,3.066,2.772,3.738H558.83l-2.3-3.445h-.028v3.445h-2.1Z" transform="translate(-532.609 -29.983)" fill="#4a4a4a"/>
    <path id="パス_208" data-name="パス 208" d="M569.793,40.567h-2.016v-.924h-.028a2.286,2.286,0,0,1-.287.392,1.89,1.89,0,0,1-.427.35,2.446,2.446,0,0,1-.574.252,2.407,2.407,0,0,1-.7.1,2.943,2.943,0,0,1-1.295-.245,1.855,1.855,0,0,1-.77-.679,2.648,2.648,0,0,1-.364-1.023,8.288,8.288,0,0,1-.091-1.273V33.763h2.1V37.1c0,.195.007.4.021.609a1.927,1.927,0,0,0,.126.581.9.9,0,0,0,.945.6,1.3,1.3,0,0,0,.658-.147,1,1,0,0,0,.385-.392,1.615,1.615,0,0,0,.175-.554,4.755,4.755,0,0,0,.042-.643V33.763h2.1Z" transform="translate(-532.609 -29.983)" fill="#4a4a4a"/>
    <path id="パス_209" data-name="パス 209" d="M574.427,29.983v4.7h.028a1.272,1.272,0,0,1,.238-.393,1.851,1.851,0,0,1,.406-.349,2.187,2.187,0,0,1,.56-.252,2.374,2.374,0,0,1,.7-.1,2.876,2.876,0,0,1,1.287.245,1.863,1.863,0,0,1,.764.679,2.74,2.74,0,0,1,.371,1.021,7.822,7.822,0,0,1,.1,1.275v3.752h-2.1V37.235c0-.2-.008-.4-.021-.61a1.925,1.925,0,0,0-.126-.581,1.016,1.016,0,0,0-.323-.433.99.99,0,0,0-.623-.168,1.294,1.294,0,0,0-.657.147,1.009,1.009,0,0,0-.386.392,1.609,1.609,0,0,0-.174.553,4.759,4.759,0,0,0-.042.644v3.388h-2.1V29.983Z" transform="translate(-532.609 -29.983)" fill="#4a4a4a"/>
    <path id="パス_210" data-name="パス 210" d="M585.683,39.713h-.028a1.969,1.969,0,0,1-.931.783,3.246,3.246,0,0,1-2.142.106,2.327,2.327,0,0,1-.777-.4,1.928,1.928,0,0,1-.533-.659,2.012,2.012,0,0,1-.195-.909,2.083,2.083,0,0,1,.217-.994,1.932,1.932,0,0,1,.588-.672,2.9,2.9,0,0,1,.846-.413,6.025,6.025,0,0,1,.988-.217,9.261,9.261,0,0,1,1.022-.084c.34-.01.655-.014.945-.014a1.093,1.093,0,0,0-.4-.889,1.437,1.437,0,0,0-.945-.329,2.057,2.057,0,0,0-.946.217,2.559,2.559,0,0,0-.762.594l-1.12-1.147a3.851,3.851,0,0,1,1.372-.819,4.9,4.9,0,0,1,1.624-.273,4.247,4.247,0,0,1,1.519.231,2.2,2.2,0,0,1,.951.679,2.591,2.591,0,0,1,.5,1.1,7.222,7.222,0,0,1,.14,1.505v3.458h-1.932Zm-.518-2.129c-.159,0-.357.008-.595.022a3.031,3.031,0,0,0-.686.119,1.5,1.5,0,0,0-.56.294.677.677,0,0,0-.231.546.6.6,0,0,0,.322.559,1.341,1.341,0,0,0,.672.183,2.113,2.113,0,0,0,.6-.084,1.82,1.82,0,0,0,.511-.238,1.167,1.167,0,0,0,.357-.392,1.129,1.129,0,0,0,.133-.56v-.449Z" transform="translate(-532.609 -29.983)" fill="#4a4a4a"/>
    <path id="パス_211" data-name="パス 211" d="M589.98,33.763h2.1v1.092h.028a2.591,2.591,0,0,1,.8-.945,2.016,2.016,0,0,1,1.162-.315c.121,0,.242,0,.365.014a1.952,1.952,0,0,1,.335.055v1.918a3.342,3.342,0,0,0-.441-.1,2.772,2.772,0,0,0-.455-.035,2.216,2.216,0,0,0-.952.168,1.263,1.263,0,0,0-.539.468,1.789,1.789,0,0,0-.244.722,6.884,6.884,0,0,0-.057.924v2.842h-2.1Z" transform="translate(-532.609 -29.983)" fill="#4a4a4a"/>
    <path id="パス_212" data-name="パス 212" d="M596.588,31.62a1.219,1.219,0,1,1,.357.862A1.171,1.171,0,0,1,596.588,31.62Zm.168,2.143h2.1v6.8h-2.1Z" transform="translate(-532.609 -29.983)" fill="#4a4a4a"/>
  </g>
</svg>
